<svg width="19" height="15" viewBox="0 0 19 15" fill="none" xmlns="http://www.w3.org/2000/svg">
<path d="M5.07603 5.19121L2.30579 7.49975L5.07603 9.80828C5.2594 9.96108 5.37456 10.1805 5.39617 10.4182C5.41778 10.6559 5.34408 10.8924 5.19128 11.0758C5.03847 11.2592 4.81909 11.3743 4.58138 11.396C4.34367 11.4176 4.10711 11.3439 3.92374 11.1911L0.323832 8.19113C0.222477 8.10667 0.14093 8.00096 0.0849691 7.88148C0.0290078 7.762 0 7.63168 0 7.49975C0 7.36781 0.0290078 7.23749 0.0849691 7.11801C0.14093 6.99853 0.222477 6.89282 0.323832 6.80836L3.92374 3.80844C4.01454 3.73278 4.11934 3.67574 4.23218 3.64058C4.34502 3.60543 4.46368 3.59284 4.58138 3.60354C4.69908 3.61424 4.81352 3.64802 4.91817 3.70295C5.02281 3.75788 5.11561 3.83288 5.19128 3.92368C5.26694 4.01447 5.32397 4.11928 5.35913 4.23212C5.39428 4.34496 5.40687 4.46361 5.39617 4.58131C5.38547 4.69901 5.35169 4.81346 5.29676 4.9181C5.24183 5.02275 5.16683 5.11555 5.07603 5.19121ZM18.2757 6.80836L14.6758 3.80844C14.585 3.73278 14.4802 3.67574 14.3674 3.64058C14.2545 3.60543 14.1359 3.59284 14.0182 3.60354C13.9005 3.61424 13.786 3.64802 13.6814 3.70295C13.5767 3.75788 13.4839 3.83288 13.4083 3.92368C13.3326 4.01447 13.2756 4.11928 13.2404 4.23212C13.2052 4.34496 13.1927 4.46361 13.2034 4.58131C13.2141 4.69901 13.2478 4.81346 13.3028 4.9181C13.3577 5.02275 13.4327 5.11555 13.5235 5.19121L16.2937 7.49975L13.5235 9.80828C13.4327 9.88394 13.3577 9.97674 13.3028 10.0814C13.2478 10.186 13.2141 10.3005 13.2034 10.4182C13.1818 10.6559 13.2555 10.8924 13.4083 11.0758C13.5611 11.2592 13.7804 11.3743 14.0182 11.396C14.1359 11.4067 14.2545 11.3941 14.3674 11.3589C14.4802 11.3238 14.585 11.2667 14.6758 11.1911L18.2757 8.19113C18.3771 8.10667 18.4586 8.00096 18.5146 7.88148C18.5705 7.762 18.5995 7.63168 18.5995 7.49975C18.5995 7.36781 18.5705 7.23749 18.5146 7.11801C18.4586 6.99853 18.3771 6.89282 18.2757 6.80836ZM12.0073 0.0541386C11.783 -0.0273868 11.5354 -0.0164834 11.3192 0.0844513C11.1029 0.185386 10.9355 0.368088 10.8539 0.592381L6.05405 13.792C6.01358 13.9031 5.99541 14.0211 6.00055 14.1392C6.0057 14.2573 6.03406 14.3733 6.08403 14.4804C6.134 14.5876 6.20459 14.6838 6.29177 14.7637C6.37895 14.8435 6.48101 14.9054 6.59212 14.9458C6.70323 14.9862 6.82121 15.0043 6.93932 14.9991C7.05743 14.9939 7.17336 14.9655 7.28048 14.9155C7.3876 14.8654 7.48381 14.7948 7.56362 14.7076C7.64343 14.6203 7.70527 14.5182 7.74561 14.4071L12.5455 1.20745C12.5859 1.09639 12.604 0.978452 12.5988 0.860382C12.5936 0.742313 12.5652 0.626421 12.5153 0.519325C12.4653 0.412229 12.3947 0.316026 12.3075 0.236209C12.2204 0.156392 12.1183 0.0945243 12.0073 0.0541386Z" fill="url(#paint0_linear_1_167)"/>
<defs>
<linearGradient id="paint0_linear_1_167" x1="9.29977" y1="0.1995" x2="9.29977" y2="14.9713" gradientUnits="userSpaceOnUse">
<stop stop-color="#EB595B"/>
<stop offset="1" stop-color="#E41B39"/>
</linearGradient>
</defs>
</svg>
