<svg width="480" height="326" viewBox="0 0 480 326" fill="none" xmlns="http://www.w3.org/2000/svg" class="background">
<g opacity="0.64">
<path d="M0 348.047C36.296 348.389 72.4223 347.513 108.576 344.751C126.835 343.356 144.91 341.026 163.29 341.241C181.9 341.461 200.422 343.237 218.921 344.815C238.862 346.517 258.833 347.983 278.894 348.101C299.205 348.22 319.311 345.317 339.075 341.641C357.554 338.201 375.795 333.954 394.247 330.434C412.75 326.905 433.986 322.165 453.044 323.858C495.825 327.663 535.445 344.319 578.326 348.047" stroke="#484A4D" stroke-width="0.5" stroke-miterlimit="10"/>
<path d="M0 344.671C35.1316 344.93 69.9895 343.762 104.913 340.553C123.227 338.869 141.286 336.348 159.773 336.645C178.82 336.956 197.75 339.017 216.646 340.841C237.204 342.821 257.8 344.521 278.512 344.706C298.677 344.885 318.502 341.762 337.976 337.641C355.931 333.842 373.586 329.129 391.51 325.237C409.512 321.33 430.493 316.249 449.204 318.009C493.45 322.169 533.957 340.629 578.326 344.674" stroke="#484A4D" stroke-width="0.5" stroke-miterlimit="10"/>
<path d="M0 341.378C33.9325 341.548 67.4333 340.057 101.084 336.389C119.464 334.386 137.492 331.705 156.111 332.092C175.616 332.498 194.978 334.857 214.302 336.927C235.496 339.196 256.744 341.135 278.134 341.391C298.106 341.631 317.553 338.329 336.673 333.762C354.027 329.618 370.999 324.457 388.318 320.21C405.776 315.925 426.36 310.578 444.697 312.364C490.632 316.844 532.256 337.068 578.334 341.381" stroke="#484A4D" stroke-width="0.5" stroke-miterlimit="10"/>
<path d="M0 338.149C32.7219 338.223 64.7922 336.383 97.1324 332.258C115.581 329.906 133.571 327.093 152.332 327.573C172.315 328.082 192.125 330.741 211.889 333.061C233.738 335.625 255.649 337.804 277.737 338.137C297.489 338.434 316.474 335.004 335.196 329.986C351.891 325.509 368.115 319.925 384.759 315.327C401.642 310.665 421.71 305.112 439.666 306.904C487.451 311.669 530.379 333.618 578.334 338.153" stroke="#484A4D" stroke-width="0.5" stroke-miterlimit="10"/>
<path d="M0 334.959C31.519 334.933 62.0934 332.722 93.1073 328.143C111.622 325.41 129.569 322.501 148.488 323.071C168.965 323.689 189.226 326.652 209.444 329.221C231.953 332.082 254.542 334.505 277.336 334.917C296.861 335.273 315.313 331.765 333.604 326.284C349.597 321.49 365.011 315.477 380.95 310.565C397.266 305.538 416.675 299.829 434.276 301.602C484.027 306.61 528.385 330.249 578.338 334.959" stroke="#484A4D" stroke-width="0.5" stroke-miterlimit="10"/>
<path d="M0 331.778C30.3508 331.66 59.3559 329.058 89.059 324.034C107.635 320.892 125.536 317.916 144.625 318.575C165.599 319.301 186.319 322.572 206.988 325.391C230.16 328.553 253.428 331.218 276.935 331.711C296.24 332.114 314.11 328.591 331.946 322.636C361.506 312.767 395.412 292.981 428.681 296.437C480.438 301.813 526.326 326.946 578.33 331.778" stroke="#484A4D" stroke-width="0.5" stroke-miterlimit="10"/>
<path d="M0 328.588C29.2365 328.383 56.6185 325.381 85.0376 319.922C103.664 316.341 121.526 313.327 140.785 314.076C162.249 314.911 183.427 318.485 204.544 321.554C228.375 325.016 252.318 327.922 276.534 328.492C295.635 328.943 312.9 325.452 330.277 319.016C358.619 308.517 390.334 288.015 423.048 291.388C476.837 296.93 524.264 323.682 578.33 328.588" stroke="#484A4D" stroke-width="0.5" stroke-miterlimit="10"/>
<path d="M0 325.356C28.2071 325.071 53.9004 321.672 81.0896 315.788C99.7465 311.749 117.582 308.719 137.01 309.554C158.96 310.495 180.578 314.376 202.134 317.685C226.613 321.445 251.219 324.588 276.137 325.234C295.064 325.727 311.724 322.322 328.642 315.397C355.819 304.271 385.26 283.145 417.531 286.421C473.309 292.085 522.243 320.431 578.33 325.356" stroke="#484A4D" stroke-width="0.5" stroke-miterlimit="10"/>
<path d="M0 322.063C27.2818 321.711 51.2362 317.925 77.2649 311.628C95.9295 307.113 113.761 304.089 133.347 305.001C155.764 306.044 177.806 310.223 199.782 313.772C241.46 320.498 287.889 329.41 327.096 311.756C353.182 300.012 380.344 278.338 412.291 281.519C469.959 287.26 520.323 317.167 578.33 322.063" stroke="#484A4D" stroke-width="0.5" stroke-miterlimit="10"/>
<path d="M0 318.681C14.1614 318.463 28.4461 318.114 42.3068 315.468C52.9557 313.436 63.2307 310.21 73.6137 307.426C92.259 302.428 110.11 299.42 129.843 300.402C152.702 301.541 175.145 306.015 197.519 309.791C238.827 316.764 287.21 327.01 325.696 308.066C350.784 295.717 375.745 273.57 407.487 276.655C466.901 282.425 518.55 313.865 578.334 318.681" stroke="#484A4D" stroke-width="0.5" stroke-miterlimit="10"/>
<path d="M0 315.186C13.6447 314.952 27.4938 314.649 40.7607 311.733C50.8044 309.525 60.4085 306.053 70.1823 303.17C88.7775 297.689 106.679 294.7 126.535 295.743C149.803 296.969 172.62 301.73 195.356 305.727C221.643 310.348 248.111 314.165 275.015 315.007C293.649 315.589 308.797 312.684 324.482 304.306C348.694 291.375 371.604 268.815 403.273 271.807C464.233 277.564 516.973 310.504 578.334 315.186" stroke="#484A4D" stroke-width="0.5" stroke-miterlimit="10"/>
<path d="M0 311.554C13.1705 311.311 26.6417 311.074 39.3573 307.896C48.838 305.528 57.8021 301.813 67.0246 298.85C85.5388 292.901 103.513 289.916 123.473 291.013C147.116 292.316 170.264 297.352 193.328 301.557C220.151 306.447 247.178 310.469 274.672 311.359C293.302 311.96 308.142 309.266 323.506 300.444C346.998 286.956 368.076 264.037 399.807 266.943C462.066 272.642 515.647 307.048 578.33 311.551" stroke="#484A4D" stroke-width="0.5" stroke-miterlimit="10"/>
<path d="M0 307.762C12.731 307.522 25.9362 307.394 38.1197 303.951C47.0838 301.417 55.4541 297.49 64.1831 294.463C82.5932 288.076 100.656 285.068 120.697 286.21C144.667 287.577 168.105 292.879 191.446 297.279C218.763 302.428 246.303 306.642 274.348 307.567C293.024 308.185 307.691 305.701 322.82 296.473C345.787 282.466 365.316 259.231 397.251 262.057C460.505 267.653 514.617 303.497 578.33 307.762" stroke="#484A4D" stroke-width="0.5" stroke-miterlimit="10"/>
<path d="M0 303.781C12.3377 303.554 25.3694 303.557 37.0748 299.865C45.5801 297.18 53.403 293.061 61.7117 289.983C80.0062 283.202 98.1503 280.127 118.257 281.301C142.5 282.716 166.173 288.274 189.746 292.853C217.502 298.245 245.509 302.639 274.055 303.586C292.839 304.21 307.483 301.932 322.484 292.348C345.163 277.861 363.48 254.351 395.767 257.106C459.664 262.556 513.946 299.804 578.338 303.781" stroke="#484A4D" stroke-width="0.5" stroke-miterlimit="10"/>
<path d="M0 299.586C12.0023 299.385 24.9607 299.545 36.2459 295.625C44.3579 292.809 51.695 288.521 59.6528 285.404C77.8162 278.284 96.0375 275.09 116.186 276.281C140.646 277.727 164.5 283.522 188.239 288.268C216.38 293.89 244.792 298.441 273.781 299.401C292.743 300.028 307.521 297.932 322.535 288.053C345.213 273.135 362.709 249.385 395.501 252.073C459.641 257.33 513.673 295.951 578.334 299.586" stroke="#484A4D" stroke-width="0.5" stroke-miterlimit="10"/>
<path d="M0 295.154C11.7285 294.991 24.7178 295.327 35.6598 291.218C43.448 288.293 50.3764 283.868 58.0643 280.719C76.0967 273.33 94.3719 269.951 114.54 271.145C139.146 272.601 163.116 278.623 186.955 283.509C215.416 289.346 244.171 294.034 273.538 294.988C292.758 295.612 307.841 293.666 323.028 283.564C346.042 268.255 363.141 244.306 396.619 246.933C460.547 251.954 513.85 291.919 578.334 295.154" stroke="#484A4D" stroke-width="0.5" stroke-miterlimit="10"/>
<path d="M0 290.463C11.5435 290.351 24.6291 290.869 35.3437 286.62C42.8967 283.625 49.5012 279.077 56.9886 275.909C74.8976 268.332 93.1844 264.687 113.357 265.868C138.036 267.314 162.052 273.541 185.918 278.553C214.63 284.581 243.658 289.391 273.33 290.316C292.909 290.927 308.47 289.106 324.015 278.85C347.742 263.199 364.918 239.087 399.275 241.663C428.539 243.855 456.834 255.525 483.426 265.074C513.538 275.887 545.034 289.01 578.33 290.46" stroke="#484A4D" stroke-width="0.5" stroke-miterlimit="10"/>
<path d="M0 285.484C11.4317 285.429 24.7371 286.159 35.3167 281.81C42.7193 278.767 49.1079 274.143 56.4835 270.965C74.2884 263.298 92.5366 259.308 112.693 260.463C137.365 261.877 161.358 268.29 185.174 273.397C214.055 279.593 243.273 284.495 273.164 285.375C293.213 285.967 309.426 284.223 325.538 273.897C350.395 257.967 368.161 233.737 403.613 236.265C432.244 238.306 459.95 250.277 485.751 259.893C514.926 270.767 545.781 284.3 578.326 285.481" stroke="#484A4D" stroke-width="0.5" stroke-miterlimit="10"/>
<path d="M0 280.357C11.5589 280.242 24.6947 280.76 35.3938 276.44C42.9005 273.41 49.4472 268.888 56.9462 265.765C74.8629 258.306 93.1497 254.757 113.252 255.996C137.966 257.519 162.009 263.762 185.925 268.751C214.603 274.732 243.604 279.458 273.238 280.239C293.445 280.77 310.062 278.591 326.652 268.712C352.38 253.394 371.982 229.906 407.333 232.492C435.34 234.543 462.425 246.12 487.713 255.471C516.325 266.05 546.479 279.112 578.33 280.367" stroke="#484A4D" stroke-width="0.5" stroke-miterlimit="10"/>
<path d="M0 275.231C11.7594 275.074 24.8373 275.426 35.7639 271.199C43.4557 268.223 50.28 263.855 57.9756 260.808C75.9964 253.679 94.2485 250.44 114.251 251.724C138.88 253.304 162.869 259.336 186.77 264.159C215.131 269.88 243.808 274.386 273.06 275.023C293.371 275.464 310.428 272.914 327.47 263.535C354.131 248.863 375.486 226.367 410.784 228.965C470.032 233.327 518.507 272.824 578.33 275.266" stroke="#484A4D" stroke-width="0.5" stroke-miterlimit="10"/>
<path d="M0 270.105C12.0485 269.929 25.1227 270.127 36.4078 266.069C44.3733 263.205 51.5678 259.01 59.5217 256.069C77.6312 249.372 95.7946 246.332 115.658 247.628C140.095 249.221 163.93 255.004 187.71 259.618C232.018 268.217 286.582 279.337 328.029 258.367C355.673 244.38 378.69 223.093 413.984 225.66C471.99 229.874 519.784 267.794 578.334 270.185" stroke="#484A4D" stroke-width="0.5" stroke-miterlimit="10"/>
<path d="M0 264.978C12.3994 264.802 25.5622 264.876 37.283 261.039C45.5917 258.319 53.2372 254.335 61.5189 251.519C79.69 245.34 97.73 242.409 117.42 243.682C141.575 245.247 165.167 250.754 188.732 255.122C233.58 263.439 286.042 272.786 328.353 253.205C357.007 239.945 381.597 220.057 416.93 222.543C473.76 226.546 520.99 262.85 578.33 265.106" stroke="#484A4D" stroke-width="0.5" stroke-miterlimit="10"/>
<path d="M0 259.852C12.8042 259.695 26.1405 259.666 38.3664 256.095C47.0799 253.551 55.2421 249.807 63.9132 247.135C82.1074 241.525 100.024 238.645 119.498 239.874C143.291 241.375 166.567 246.575 189.835 250.671C235.041 258.626 285.514 266.146 328.472 248.06C358.148 235.567 384.215 217.228 419.636 219.602C475.356 223.337 522.128 257.993 578.326 260.05" stroke="#484A4D" stroke-width="0.5" stroke-miterlimit="10"/>
<path d="M0 254.725C13.2515 254.604 26.8499 254.501 39.6272 251.225C48.8033 248.873 57.5246 245.397 66.6467 242.892C84.8294 237.897 102.619 235.023 121.85 236.185C145.215 237.596 168.117 242.469 191.026 246.261C236.394 253.775 285.043 259.458 328.437 242.93C359.131 231.241 386.575 214.581 422.127 216.805C476.802 220.226 523.211 253.199 578.334 255.001" stroke="#484A4D" stroke-width="0.5" stroke-miterlimit="10"/>
<path d="M0 249.599C13.7334 249.532 27.6712 249.372 41.0267 246.418C50.708 244.274 60.0229 241.087 69.6502 238.77C87.7751 234.405 105.46 231.519 124.422 232.594C147.308 233.896 169.786 238.418 192.283 241.89C237.632 248.885 284.646 252.754 328.256 237.816C359.899 226.978 388.707 212.015 424.394 214.13C478.082 217.311 524.229 248.456 578.334 249.964" stroke="#484A4D" stroke-width="0.5" stroke-miterlimit="10"/>
<path d="M0 244.473C14.2385 244.469 28.5926 244.3 42.5381 241.657C52.7553 239.721 62.6948 236.847 72.8657 234.738C90.8903 231.001 108.499 228.105 127.175 229.084C149.548 230.258 171.563 234.421 193.609 237.551C238.758 243.964 284.353 246.069 327.971 232.722C360.577 222.745 390.558 209.644 426.453 211.551C479.227 214.354 525.178 243.756 578.33 244.937" stroke="#484A4D" stroke-width="0.5" stroke-miterlimit="10"/>
<path d="M0 239.346C14.7667 239.42 29.5835 239.25 44.1343 236.93C54.9221 235.212 65.4939 232.652 76.2393 230.77C94.1367 227.637 111.683 224.757 130.066 225.628C151.904 226.661 173.433 230.46 195.005 233.24C239.791 239.01 284.176 239.436 327.612 227.644C361.125 218.546 392.189 207.362 428.311 209.036C480.241 211.442 526.06 239.074 578.326 239.912" stroke="#484A4D" stroke-width="0.5" stroke-miterlimit="10"/>
<path d="M0 234.22C27.6442 234.505 52.7051 230.741 79.7093 226.847C97.4563 224.29 114.957 221.458 133.051 222.213C154.345 223.106 175.38 226.53 196.463 228.953C240.747 234.037 284.114 232.879 327.219 222.581C361.595 214.37 393.615 205.177 429.992 206.562C481.144 208.508 526.882 234.405 578.334 234.889" stroke="#484A4D" stroke-width="0.5" stroke-miterlimit="10"/>
<path d="M0 229.093C28.5155 229.538 55.1418 226.172 83.214 222.943C100.811 220.921 118.253 218.181 136.085 218.825C156.839 219.573 177.385 222.633 197.982 224.693C241.661 229.065 284.172 226.431 326.814 217.548C361.934 210.233 394.884 202.972 431.488 204.111C481.922 205.682 527.634 229.74 578.33 229.877" stroke="#484A4D" stroke-width="0.5" stroke-miterlimit="10"/>
<path d="M0 223.967C29.4447 224.578 57.5438 221.589 86.6955 219.029C104.15 217.497 121.519 214.898 139.119 215.433C159.357 216.047 179.425 218.745 199.551 220.447C242.555 224.089 284.33 220.101 326.433 212.533C362.208 206.101 396.002 200.757 432.822 201.647C482.601 202.85 528.328 225.058 578.33 224.863" stroke="#484A4D" stroke-width="0.5" stroke-miterlimit="10"/>
<path d="M0 218.84C30.4009 219.618 59.8726 216.978 90.0922 215.084C107.427 213.996 124.703 211.592 142.115 212.028C161.871 212.517 181.491 214.869 201.17 216.22C243.469 219.128 284.573 213.912 326.105 207.548C343.081 204.946 360.037 202.136 377.191 200.456C396.164 198.594 414.944 198.824 433.994 199.157C483.179 200.012 528.952 220.364 578.33 219.855" stroke="#484A4D" stroke-width="0.5" stroke-miterlimit="10"/>
<path d="M0 213.714C31.357 214.645 62.0895 212.319 93.3463 211.081C110.588 210.396 127.757 208.226 145.03 208.581C164.35 208.978 183.562 210.985 202.84 212.002C244.448 214.194 284.897 207.865 325.866 202.585C343.108 200.364 360.369 198.153 377.769 196.972C396.923 195.67 415.862 196.393 435.024 196.601C483.684 197.129 529.519 215.631 578.33 214.841" stroke="#484A4D" stroke-width="0.5" stroke-miterlimit="10"/>
<path d="M0 208.588C32.2785 209.663 64.1676 207.596 96.396 206.994C113.576 206.674 130.629 204.808 147.81 205.08C166.752 205.378 185.621 207.093 204.544 207.791C245.505 209.295 285.286 201.96 325.739 197.65C343.208 195.788 360.724 194.159 378.324 193.455C397.59 192.687 416.675 193.868 435.91 193.96C484.105 194.191 530.012 210.86 578.33 209.823" stroke="#484A4D" stroke-width="0.5" stroke-miterlimit="10"/>
<path d="M0 203.461C33.1422 204.655 66.0607 202.789 99.1836 202.802C116.333 202.809 133.286 201.279 150.42 201.506C169.061 201.753 187.653 203.186 206.29 203.583C246.677 204.444 285.753 196.197 325.765 192.745C343.42 191.221 361.136 190.143 378.887 189.897C398.196 189.631 417.404 191.225 436.67 191.215C484.459 191.186 530.44 206.041 578.326 204.805" stroke="#484A4D" stroke-width="0.5" stroke-miterlimit="10"/>
<path d="M0 198.335C33.921 199.618 67.7379 197.884 101.651 198.476C118.797 198.773 135.684 197.625 152.814 197.836C171.244 198.063 189.638 199.25 208.072 199.378C226.998 199.509 246.064 198.629 264.52 194.94C284.608 190.921 305.389 189.276 325.978 187.871C343.775 186.655 361.622 186.105 379.481 186.281C398.774 186.473 418.063 188.434 437.322 188.332C484.764 188.085 530.822 201.164 578.334 199.781" stroke="#484A4D" stroke-width="0.5" stroke-miterlimit="10"/>
<path d="M0 193.209C34.588 194.543 69.1567 192.866 103.733 193.993C120.906 194.553 137.777 193.817 154.942 194.05C173.26 194.3 191.554 195.276 209.88 195.164C228.44 195.052 247.136 193.922 265.145 189.996C285.059 185.653 305.863 184.101 326.398 183.023C344.284 182.085 362.208 182.015 380.113 182.585C399.325 183.196 418.657 185.487 437.857 185.282C485.011 184.777 531.127 196.217 578.33 194.748" stroke="#484A4D" stroke-width="0.5" stroke-miterlimit="10"/>
<path d="M0 188.082C35.1162 189.416 70.2825 187.72 105.376 189.33C140.515 190.943 176.468 191.551 211.715 190.949C229.998 190.639 248.466 189.327 266.12 185.173C285.834 180.533 306.623 179.013 327.065 178.216C344.985 177.519 362.914 177.89 380.811 178.815C399.896 179.804 419.185 182.306 438.297 182.053C485.211 181.436 531.381 191.202 578.33 189.711" stroke="#484A4D" stroke-width="0.5" stroke-miterlimit="10"/>
<path d="M0 182.956C35.4902 184.239 71.0652 182.425 106.513 184.46C141.891 186.489 178.064 187.625 213.57 186.722C231.702 186.261 250.031 184.793 267.474 180.479C287.014 175.644 307.648 174.012 328.006 173.442C365.119 172.405 401.735 179.161 438.648 178.613C485.373 177.919 531.582 186.108 578.326 184.665" stroke="#484A4D" stroke-width="0.5" stroke-miterlimit="10"/>
<path d="M0 177.829C35.6791 178.991 71.4739 176.972 107.091 179.359C142.959 181.762 179.413 183.592 215.447 182.482C233.553 181.922 251.87 180.351 269.255 175.922C288.648 170.978 308.994 169.103 329.262 168.709C366.052 167.989 402.309 175.474 438.925 174.94C485.5 174.258 531.744 180.93 578.33 179.612" stroke="#484A4D" stroke-width="0.5" stroke-miterlimit="10"/>
<path d="M0 172.703C35.6637 173.673 71.4584 171.337 107.049 173.999C143.661 176.738 180.504 179.433 217.336 178.22C256.15 176.94 291.964 164.549 330.859 164.005C367.209 163.497 402.915 171.458 439.134 170.991C485.6 170.393 531.859 175.644 578.33 174.533" stroke="#484A4D" stroke-width="0.5" stroke-miterlimit="10"/>
<path d="M0 167.576C35.4246 168.268 70.9842 165.509 106.324 168.357C143.942 171.391 181.318 175.135 219.233 173.938C237.717 173.356 256.447 171.746 274.202 167.263C293.406 162.412 312.695 159.596 332.821 159.346C368.589 158.901 403.586 167.096 439.28 166.764C485.666 166.328 531.936 170.268 578.326 169.452" stroke="#484A4D" stroke-width="0.5" stroke-miterlimit="10"/>
<path d="M0 162.45C34.9388 162.77 69.9972 159.468 104.859 162.412C143.75 165.695 181.842 170.681 221.138 169.631C240.045 169.125 259.223 167.593 277.448 163.186C296.571 158.559 315.155 154.981 335.196 154.725C370.212 154.277 404.391 162.361 439.388 162.217C485.724 162.025 531.994 164.773 578.334 164.348" stroke="#484A4D" stroke-width="0.5" stroke-miterlimit="10"/>
<path d="M0 157.324C34.187 157.173 68.455 153.202 102.596 156.133C121.422 157.749 139.975 161.077 158.809 162.773C180.123 164.693 201.602 165.695 223.043 165.298C242.555 164.937 262.35 163.545 281.246 159.298C300.284 155.02 318.066 150.508 337.995 150.149C372.047 149.538 405.367 157.228 439.446 157.333C485.747 157.477 532.021 159.164 578.326 159.231" stroke="#484A4D" stroke-width="0.5" stroke-miterlimit="10"/>
<path d="M0 152.197C33.7436 152.639 67.6569 147.919 101.296 151.474C142.859 155.865 183.311 161.644 225.487 160.876C245.883 160.505 266.506 159.007 286.25 154.565C304.757 150.402 322.199 146.178 341.542 145.679C374.496 144.828 406.732 152.213 439.654 152.021C485.905 151.753 532.075 154.761 578.33 154.258" stroke="#484A4D" stroke-width="0.5" stroke-miterlimit="10"/>
<path d="M0 147.071C33.4429 147.973 67.121 142.293 100.417 146.322C120.011 148.693 139.2 151.919 158.975 153.589C181.761 155.516 204.686 156.735 227.6 156.437C248.686 156.162 270.011 154.697 290.437 150.146C308.524 146.121 325.715 142.114 344.561 141.391C376.659 140.159 408.139 146.873 440.148 146.501C486.264 145.967 532.206 150.469 578.33 149.567" stroke="#484A4D" stroke-width="0.5" stroke-miterlimit="10"/>
<path d="M0 141.945C33.2887 143.183 66.8202 136.351 99.9277 140.719C108.31 141.823 116.383 144.047 124.788 144.978C136.278 146.249 147.783 147.455 159.307 148.492C182.579 150.588 205.986 152.073 229.412 151.983C251.026 151.9 272.895 150.572 293.869 146.018C311.635 142.162 328.657 138.293 347.094 137.276C378.586 135.538 409.542 141.257 440.911 140.799C486.823 140.133 532.403 146.293 578.33 145.141" stroke="#484A4D" stroke-width="0.5" stroke-miterlimit="10"/>
<path d="M0 136.818C33.2732 138.277 66.7239 130.121 99.8005 134.7C108.182 135.861 116.175 138.29 124.58 139.247C136.305 140.581 148.029 141.909 159.777 143.084C183.388 145.449 207.131 147.289 230.927 147.503C252.915 147.701 275.189 146.604 296.583 142.14C314.126 138.479 331.059 134.677 349.161 133.305C380.294 130.946 410.888 135.385 441.913 134.921C487.571 134.239 532.642 142.213 578.33 140.946" stroke="#484A4D" stroke-width="0.5" stroke-miterlimit="10"/>
<path d="M0 131.692C33.4005 133.273 66.8087 123.625 99.9971 128.306C108.387 129.49 116.31 132.082 124.715 133.106C136.602 134.553 148.477 136.047 160.379 137.407C184.19 140.127 208.133 142.409 232.176 143.013C254.4 143.573 276.947 142.796 298.642 138.501C316.05 135.055 332.968 131.253 350.799 129.481C381.794 126.399 412.164 129.308 443.132 128.905C488.5 128.313 532.904 138.242 578.326 136.975" stroke="#484A4D" stroke-width="0.5" stroke-miterlimit="10"/>
<path d="M0 126.565C33.6588 128.168 67.0477 116.895 100.498 121.576C108.903 122.754 116.776 125.468 125.17 126.591C137.153 128.197 149.113 129.893 161.1 131.477C184.988 134.632 209.005 137.426 233.179 138.498C255.502 139.49 278.204 139.109 300.099 135.058C317.453 131.848 334.421 127.98 352.049 125.765C383.082 121.871 413.379 123.026 444.551 122.741C489.61 122.332 533.186 134.341 578.334 133.18" stroke="#484A4D" stroke-width="0.5" stroke-miterlimit="10"/>
<path d="M0 121.439C34.0444 122.981 67.4256 109.964 101.262 114.549C109.69 115.692 117.521 118.495 125.899 119.749C137.916 121.551 149.907 123.49 161.917 125.33C185.771 128.985 209.745 132.357 233.942 133.967C256.246 135.452 278.99 135.541 300.998 131.794C318.378 128.837 335.451 124.837 352.924 122.162C384.138 117.385 414.528 116.578 446.128 116.473C490.875 116.322 533.455 130.527 578.334 129.554" stroke="#484A4D" stroke-width="0.5" stroke-miterlimit="10"/>
<path d="M0 116.313C34.5533 117.717 67.9113 102.857 102.264 107.266C110.723 108.351 118.531 111.215 126.874 112.626C138.88 114.655 150.84 116.866 162.819 118.991C186.535 123.202 210.366 127.209 234.494 129.413C256.671 131.442 279.356 132.06 301.387 128.677C318.868 125.993 336.087 121.797 353.464 118.642C384.944 112.93 415.642 109.977 447.843 110.101C492.286 110.274 533.706 126.773 578.33 126.063" stroke="#484A4D" stroke-width="0.5" stroke-miterlimit="10"/>
<path d="M0 111.186C35.1702 112.38 68.4974 95.6053 103.471 99.7621C111.969 100.773 119.757 103.666 128.065 105.257C140.01 107.541 151.893 110.047 163.795 112.485C187.286 117.301 210.878 121.986 234.852 124.841C256.798 127.455 279.345 128.652 301.329 125.679C318.98 123.292 336.372 118.831 353.699 115.193C385.492 108.521 416.748 103.237 449.675 103.65C493.84 104.201 533.922 123.071 578.33 122.681" stroke="#484A4D" stroke-width="0.5" stroke-miterlimit="10"/>
<path d="M0 106.06C35.8834 106.984 69.1567 88.2389 104.855 92.0789C113.395 92.9973 121.172 95.8997 129.442 97.6885C141.29 100.252 153.053 103.074 164.828 105.845C188.015 111.301 211.295 116.703 235.037 120.249C256.667 123.481 278.99 125.301 300.874 122.776C318.752 120.712 336.353 115.922 353.664 111.804C385.777 104.168 417.874 96.3925 451.599 97.1413C495.517 98.1141 534.095 119.413 578.33 119.394" stroke="#484A4D" stroke-width="0.5" stroke-miterlimit="10"/>
<path d="M0 100.933C19.9485 101.26 38.2739 96.4758 57.0195 91.3718C72.8657 87.0582 89.4869 82.6486 106.386 84.255C114.98 85.071 122.745 87.9574 130.965 89.9638C142.678 92.8214 154.287 95.9766 165.904 99.0934C188.724 105.218 211.615 111.359 235.068 115.631C256.308 119.497 278.339 121.983 300.068 119.932C318.213 118.22 336.06 113.033 353.387 108.447C385.804 99.871 419.031 89.4518 453.584 90.5814C497.302 92.0118 534.211 115.778 578.33 116.159" stroke="#484A4D" stroke-width="0.5" stroke-miterlimit="10"/>
<path d="M0 95.8068C20.3881 95.9348 38.9293 90.5172 57.8561 84.818C73.8334 80.0084 90.7361 74.9204 108.024 76.3284C116.68 77.0324 124.433 79.8868 132.603 82.1236C144.158 85.2884 155.582 88.786 167.006 92.2612C189.411 99.074 211.85 105.973 234.956 110.994C255.737 115.509 277.425 118.677 298.962 117.125C317.399 115.797 335.535 110.149 352.897 105.116C385.584 95.634 420.23 82.45 455.608 83.9988C499.176 85.906 534.269 112.159 578.33 112.968" stroke="#484A4D" stroke-width="0.5" stroke-miterlimit="10"/>
<path d="M0 90.6805C20.8469 90.5909 39.6272 84.5205 58.739 78.2325C74.8552 72.9301 92.0547 67.1445 109.752 68.3413C129.542 69.6821 150 79.1733 168.124 85.3781C190.07 92.8885 212.016 100.552 234.733 106.335C255.005 111.496 276.295 115.372 297.616 114.328C316.354 113.413 334.834 107.25 352.23 101.788C385.16 91.4517 421.452 75.4133 457.648 77.4037C501.119 79.7941 534.265 108.536 578.334 109.788" stroke="#484A4D" stroke-width="0.5" stroke-miterlimit="10"/>
<path d="M0 85.5542C21.3211 85.2374 40.3482 78.5046 59.6489 71.631C75.9077 65.8422 93.4118 59.3494 111.529 60.3254C131.343 61.3942 151.549 71.695 169.239 78.463C190.695 86.671 212.108 95.0966 234.405 101.65C254.13 107.449 274.984 112.034 296.07 111.509C315.101 111.036 333.986 104.303 351.409 98.4502C369.865 92.2486 387.99 85.3494 406.693 79.6598C423.399 74.5782 441.644 69.6246 459.668 70.815C503.105 73.6854 534.188 104.898 578.33 106.591" stroke="#484A4D" stroke-width="0.5" stroke-miterlimit="10"/>
<path d="M0 80.4277C21.7953 79.8805 41.0807 72.4821 60.5666 65.0421C76.9719 58.7765 94.7806 51.5797 113.33 52.3317C133.213 53.1381 153.072 64.2229 170.341 71.5573C191.292 80.4533 212.155 89.6309 234.004 96.9493C253.154 103.365 273.55 108.664 294.389 108.648C313.698 108.636 333.033 101.301 350.476 95.0901C369.534 88.3029 388.164 80.6901 407.441 74.3189C424.274 68.7573 443.236 62.8437 461.658 64.2613C505.113 67.6053 534.057 101.244 578.334 103.365" stroke="#484A4D" stroke-width="0.5" stroke-miterlimit="10"/>
<path d="M0 75.3014C22.2696 74.527 41.8133 66.4694 61.4842 58.479C78.036 51.7558 96.1493 43.8582 115.122 44.3862C135.117 44.9462 154.553 56.7862 171.413 64.6742C191.855 74.2422 212.151 84.1462 233.541 92.2198C252.102 99.2246 272.027 105.225 292.616 105.711C312.171 106.172 332.008 98.2198 349.458 91.6854C369.125 84.3254 388.264 76.0118 408.112 68.9814C425.061 62.9782 444.77 56.1078 463.585 57.7494C507.114 61.5446 533.864 97.551 578.338 100.076" stroke="#484A4D" stroke-width="0.5" stroke-miterlimit="10"/>
<path d="M0 70.1749C22.7361 69.1861 42.5342 60.4757 62.3787 51.9637C79.0693 44.8053 97.4871 36.2165 116.873 36.5365C137.006 36.8693 155.979 49.4261 172.435 57.8549C192.376 68.0661 212.104 78.6709 233.028 87.4709C251.003 95.0293 270.45 101.708 290.796 102.674C310.567 103.612 330.932 95.0421 348.374 88.2261C368.643 80.3093 388.287 71.3237 408.698 63.6533C425.759 57.2437 446.212 49.4485 465.413 51.3013C509.065 55.5157 533.606 93.8133 578.33 96.7029" stroke="#484A4D" stroke-width="0.5" stroke-miterlimit="10"/>
<path d="M0 65.0486C23.1795 63.8678 43.2282 54.5238 63.2384 45.519C80.0601 37.9478 98.771 28.6902 118.554 28.8182C138.842 28.9494 157.34 42.1814 173.403 51.1158C192.858 61.9382 212.035 73.2022 232.5 82.6934C249.904 90.767 268.881 98.0918 288.995 99.4998C308.959 100.898 329.845 91.7494 347.276 84.687C368.13 76.239 388.26 66.607 409.219 58.3286C426.391 51.5478 447.558 42.879 467.132 44.927C510.958 49.5126 533.305 90.0118 578.33 93.2086" stroke="#484A4D" stroke-width="0.5" stroke-miterlimit="10"/>
<path d="M0 59.9222C23.6036 58.575 43.8875 48.623 64.0443 39.1606C80.9855 31.2086 99.9778 21.3078 120.135 21.2694C140.569 21.231 158.62 35.0934 174.297 44.4918C193.293 55.8774 211.942 67.7558 231.968 77.8934C248.786 86.4086 267.377 94.4278 287.26 96.1718C307.44 97.9414 328.711 88.3606 346.184 81.0582C367.598 72.1078 388.19 61.8678 409.67 53.0198C426.962 45.8966 448.776 36.4374 468.713 38.6518C512.751 43.5478 532.962 86.1526 578.33 89.583" stroke="#484A4D" stroke-width="0.5" stroke-miterlimit="10"/>
<path d="M0 54.7957C23.993 53.3205 44.4967 42.7925 64.7845 32.9141C81.826 24.6165 101.088 14.1013 121.584 13.9317C142.142 13.7621 159.8 28.2069 175.103 38.0053C193.683 49.9029 211.838 62.3381 231.451 73.0677C247.768 81.9925 265.943 90.5717 285.637 92.658C305.979 94.8148 327.655 84.8181 345.128 77.3205C367.066 67.9093 388.086 57.0997 410.044 47.7205C427.467 40.2805 449.821 30.1397 470.124 32.4917C514.409 37.6213 532.576 82.2228 578.326 85.794" stroke="#484A4D" stroke-width="0.5" stroke-miterlimit="10"/>
<path d="M0 49.6694C24.3438 48.1142 45.048 37.0454 65.4361 26.7958C82.5547 18.191 102.071 7.09982 122.872 6.84382C143.511 6.58782 160.864 21.5638 175.805 31.6886C194.014 44.0342 211.727 56.9622 230.966 68.2166C246.831 77.4934 264.64 86.5686 284.184 88.9302C304.687 91.407 326.645 81.135 344.145 73.4614C366.561 63.6342 387.963 52.2998 410.356 42.4374C427.922 34.703 450.689 24.0182 471.35 26.463C515.917 31.7366 532.164 78.2166 578.33 81.8166" stroke="#484A4D" stroke-width="0.5" stroke-miterlimit="10"/>
<path d="M0 44.5429C24.6484 42.9621 45.53 31.3941 65.9913 20.8309C83.1561 11.9669 102.912 0.33814 123.967 0.0469401C144.625 -0.24106 161.794 15.1989 176.391 25.5733C194.292 38.2933 211.615 51.6469 230.538 63.3461C246.018 72.9141 263.518 82.4117 282.95 84.9653C303.627 87.6821 325.7 77.3013 343.262 69.4677C366.102 59.2757 387.828 47.4677 410.599 37.1797C428.33 29.1669 451.34 18.1077 472.361 20.5941C517.235 25.8997 531.728 74.1397 578.33 77.6373" stroke="#484A4D" stroke-width="0.5" stroke-miterlimit="10"/>
<path d="M0 39.4164C24.899 37.8772 45.931 25.858 66.427 15.0324C83.6072 5.96044 103.579 -6.16116 124.838 -6.42996C145.446 -6.68916 162.561 9.14764 176.846 19.6724C194.512 32.6868 211.515 46.386 230.179 58.4372C245.351 68.2324 262.623 78.0692 281.986 80.722C302.852 83.5828 324.848 73.298 342.506 65.3076C365.701 54.8116 387.685 42.5876 410.772 31.9316C428.693 23.6596 451.749 12.418 473.128 14.882C518.33 20.0948 531.269 69.9636 578.334 73.2084" stroke="#484A4D" stroke-width="0.5" stroke-miterlimit="10"/>
<path d="M0 34.2902C25.0841 32.8662 46.2394 20.4502 66.7316 9.42942C83.8848 0.20382 104.053 -12.3594 125.455 -12.5322C145.92 -12.6986 163.143 3.45502 177.154 14.0342C194.666 27.2502 211.43 41.2118 229.913 53.5158C244.865 63.471 262.003 73.551 281.342 76.1942C302.424 79.0774 324.1 69.135 341.912 60.9846C365.389 50.2454 387.558 37.6726 410.88 26.7126C429.009 18.191 451.895 6.98782 473.621 9.36222C519.167 14.3414 530.795 65.7014 578.326 68.5238" stroke="#484A4D" stroke-width="0.5" stroke-miterlimit="10"/>
<path d="M0 29.1637C25.2036 27.9413 46.4476 15.1861 66.8858 4.03406C83.9658 -5.28434 104.311 -18.2315 125.787 -18.2347C146.005 -18.2379 163.517 -1.85394 177.304 8.66766C194.755 21.9861 211.372 36.1109 229.759 48.5621C244.595 58.6101 261.702 68.8213 281.076 71.3397C302.393 74.1109 323.491 64.7829 341.519 56.4757C365.188 45.5701 387.458 32.7125 410.927 21.5221C429.294 12.7669 451.768 1.84526 473.829 4.05006C519.737 8.63886 530.321 61.3365 578.326 63.5605" stroke="#484A4D" stroke-width="0.5" stroke-miterlimit="10"/>
<path d="M0 24.0373C25.0687 22.6165 46.2703 10.2069 66.7817 -0.765901C84.0121 -9.9851 104.242 -22.5323 125.687 -22.7691C146.109 -22.9963 163.266 -6.9355 177.266 3.6053C194.809 16.8149 211.603 30.7605 230.075 43.0965C245.054 53.0997 262.165 63.2533 281.504 66.1077C302.571 69.2149 324.177 59.3909 341.97 51.2053C365.412 40.4245 387.481 27.7397 410.73 16.6805C428.87 8.0533 451.818 -3.2811 473.641 -0.897103C519.19 4.0789 530.799 55.4453 578.334 58.2741" stroke="#484A4D" stroke-width="0.5" stroke-miterlimit="10"/>
<path d="M0 18.911C24.9106 17.3526 46.0852 5.34936 66.6737 -5.39304C84.0583 -14.465 104.184 -26.5514 125.579 -26.9706C146.171 -27.3738 163.101 -11.7098 177.381 -1.21384C195.105 11.8134 212.166 25.5158 230.808 37.6598C246.025 47.5766 263.233 57.5926 282.591 60.7094C303.376 64.0566 325.26 53.9222 342.819 45.8614C365.902 35.2598 387.654 22.8022 410.552 11.9318C428.442 3.43896 451.622 -8.11944 473.143 -5.63624C518.334 -0.423441 531.277 49.4198 578.326 52.6838" stroke="#484A4D" stroke-width="0.5" stroke-miterlimit="10"/>
<path d="M0 13.7844C24.7371 12.1492 45.8963 0.594037 66.5658 -9.86676C84.1084 -18.7436 104.149 -30.334 125.474 -30.878C146.194 -31.406 163.031 -16.2028 177.651 -5.81236C195.637 6.96844 213.037 20.3636 231.918 32.2516C247.46 42.0372 264.852 51.8452 284.28 55.154C304.772 58.642 326.699 48.3956 344.018 40.4532C366.638 30.082 387.963 17.8964 410.398 7.26284C428.022 -1.08916 451.182 -12.686 472.38 -10.1804C517.227 -4.88117 531.751 43.298 578.322 46.8276" stroke="#484A4D" stroke-width="0.5" stroke-miterlimit="10"/>
<path d="M0 8.65803C24.552 7.00043 45.7035 -4.06837 66.4578 -14.2028C84.1586 -22.846 104.13 -33.902 125.367 -34.5196C146.183 -35.1212 163.035 -20.4332 178.045 -10.2124C196.358 2.26123 214.171 15.298 233.356 26.8596C249.295 36.466 266.938 46.0116 286.493 49.4388C306.685 52.978 328.434 42.7956 345.529 34.9684C367.59 24.866 388.391 13.0004 410.275 2.64523C427.621 -5.56277 450.546 -17.0284 471.389 -14.5708C515.917 -9.31638 532.218 37.0644 578.334 40.706" stroke="#484A4D" stroke-width="0.5" stroke-miterlimit="10"/>
<path d="M0 3.53169C24.3554 1.89969 45.5069 -8.65071 66.3499 -18.4139C84.2087 -26.7819 104.123 -37.2779 125.262 -37.9211C146.14 -38.5579 163.12 -24.4267 178.55 -14.4363C197.257 -2.32751 215.528 10.2965 235.072 21.4805C251.462 30.8629 269.425 40.0949 289.146 43.5765C309.036 47.0869 330.419 37.1285 347.291 29.4197C368.708 19.6309 388.904 8.1237 410.148 -1.9115C427.205 -9.9691 449.698 -21.1531 470.167 -18.7979C514.397 -13.7067 532.65 30.7573 578.33 34.3701" stroke="#484A4D" stroke-width="0.5" stroke-miterlimit="10"/>
<path d="M0 -1.59474C24.1549 -3.15954 45.3141 -13.1595 66.2419 -22.5163C84.2588 -30.5707 104.126 -40.4843 125.154 -41.1147C146.075 -41.7451 163.266 -28.2123 179.143 -18.5131C198.294 -6.81714 217.074 5.33966 237.023 16.0981C253.918 25.2085 272.247 34.0853 292.176 37.5637C311.758 40.9813 332.617 31.3845 349.265 23.7941C369.969 14.3541 389.486 3.24686 410.02 -6.43314C426.78 -14.3307 448.684 -25.1019 468.752 -22.8971C512.716 -18.0651 533.047 24.3605 578.322 27.8325" stroke="#484A4D" stroke-width="0.5" stroke-miterlimit="10"/>
<path d="M0 -6.72102C23.9467 -8.18342 45.1213 -17.6106 66.134 -26.5226C84.282 -34.2186 104.15 -43.569 125.05 -44.1258C146.013 -44.6826 163.444 -31.8282 179.818 -22.465C199.451 -11.233 218.778 0.414981 239.17 10.703C256.632 19.5158 275.327 27.9254 295.511 31.407C314.735 34.7254 335.03 25.535 351.416 18.0918C371.35 9.03898 390.126 -1.63941 409.897 -10.9258C426.353 -18.6538 447.539 -28.897 467.186 -26.881C510.924 -22.3882 533.425 17.887 578.334 21.1222" stroke="#484A4D" stroke-width="0.5" stroke-miterlimit="10"/>
<path d="M0 -11.8476C23.7347 -13.1788 44.9285 -22.014 66.0299 -30.4492C84.3282 -37.7644 104.169 -46.4972 124.946 -46.9836C145.917 -47.4764 163.698 -35.278 180.543 -26.3116C200.696 -15.5852 220.594 -4.48437 241.453 5.29162C259.477 13.7428 278.616 21.7364 299.07 25.1156C317.966 28.2388 337.517 19.6212 353.68 12.3188C372.791 3.68202 390.789 -6.53237 409.747 -15.3932C425.886 -22.9388 446.266 -32.5644 465.471 -30.7596C509.019 -26.67 533.745 11.3556 578.334 14.274" stroke="#484A4D" stroke-width="0.5" stroke-miterlimit="10"/>
<path d="M0 -16.9739C23.5187 -18.1515 44.7396 -26.3819 65.9219 -34.3115C84.3706 -41.2203 104.188 -49.3195 124.842 -49.7163C145.82 -50.1195 163.987 -38.6059 181.31 -30.0843C202.003 -19.9019 222.491 -9.38986 243.835 -0.151461C262.438 7.89974 282.036 15.4453 302.783 18.6837C321.328 21.5797 340.093 13.6085 356.024 6.46293C374.284 -1.72907 391.468 -11.4507 409.577 -19.8603C425.389 -27.2043 444.909 -36.1387 463.643 -34.5675C507.049 -30.9291 534.018 4.75094 578.338 7.29493" stroke="#484A4D" stroke-width="0.5" stroke-miterlimit="10"/>
<path d="M0 -22.1001C44.1304 -24.0137 80.7194 -51.7257 124.734 -52.3465C145.712 -52.6441 164.3 -41.8345 182.089 -33.7961C203.337 -24.1929 224.423 -14.2985 246.261 -5.63292C265.446 1.98308 285.51 9.06148 306.569 12.1271C324.744 14.7735 342.703 7.49667 358.387 0.530272C375.772 -7.18813 392.119 -16.3945 409.361 -24.3273C424.841 -31.4473 443.471 -39.6393 461.715 -38.3113C505.032 -35.1561 534.223 -1.90172 578.33 0.226278" stroke="#484A4D" stroke-width="0.5" stroke-miterlimit="10"/>
<path d="M0 -27.2267C43.7526 -28.8011 80.9739 -54.5387 124.63 -54.9099C145.616 -55.0891 164.627 -45.0059 182.876 -37.4795C204.683 -28.4875 226.362 -19.2395 248.697 -11.1627C268.461 -4.01708 288.991 2.57492 310.367 5.44212C328.133 7.82292 345.321 1.28212 360.743 -5.48268C377.237 -12.7179 392.748 -21.3771 409.111 -28.8043C424.255 -35.6811 441.998 -43.0923 459.73 -42.0075C503.016 -39.3579 534.369 -8.59308 578.33 -6.90348" stroke="#484A4D" stroke-width="0.5" stroke-miterlimit="10"/>
<path d="M0 -32.3531C43.394 -33.5819 81.2207 -57.3195 124.522 -57.4283C145.519 -57.4795 164.955 -48.1387 183.643 -41.1531C206.005 -32.7947 228.263 -24.2155 251.088 -16.7467C271.41 -10.0971 292.4 -4.00426 314.095 -1.36106C331.449 0.754139 347.858 -5.05705 363.037 -11.5723C391.776 -23.9115 423.453 -47.3643 457.71 -45.6747C501.026 -43.5371 534.454 -15.3099 578.33 -14.0747" stroke="#484A4D" stroke-width="0.5" stroke-miterlimit="10"/>
</g>
</svg>
