<svg width="192" height="92" viewBox="0 0 192 92" fill="none" xmlns="http://www.w3.org/2000/svg">
<g clip-path="url(#clip0_31_748)">
<path d="M11.2628 4.91617L4.62081 21.8997H0L9.0813 0H13.5093L22.5257 21.8997H17.9373L11.2628 4.91617Z" fill="#F2F2F2"/>
<path d="M23.7433 5.93777H27.595V7.11886C28.6543 6.12957 30.3853 5.49158 31.9581 5.49158C36.3536 5.49158 39.2738 8.07787 39.2738 11.9724V21.8997H35.4222V12.4186C35.4222 10.2806 33.8494 8.87535 31.5076 8.87535C29.1657 8.87535 27.593 10.2806 27.593 12.4186V21.8997H23.7413V5.93777H23.7433Z" fill="#F2F2F2"/>
<path d="M41.2606 13.9187C41.2606 8.87535 44.6617 5.49157 49.731 5.49157C51.6873 5.49157 53.8384 6.38597 55.058 7.69426V0H58.9077V21.8997H55.058V20.1432C53.8384 21.4515 51.6893 22.3459 49.731 22.3459C44.6617 22.3459 41.2606 18.9621 41.2606 13.9187ZM55.058 13.9187C55.058 10.8862 53.0693 8.87535 50.1166 8.87535C47.1639 8.87535 45.1122 10.8862 45.1122 13.9187C45.1122 16.9512 47.101 18.9621 50.1166 18.9621C53.1322 18.9621 55.058 16.9512 55.058 13.9187Z" fill="#F2F2F2"/>
<path d="M61.8604 5.93777H65.7121V7.82146C66.5462 6.51317 68.1189 5.61877 69.5942 5.61877C70.1726 5.61877 70.8463 5.74597 71.2948 5.93777V8.87536H69.9798C67.4127 8.87536 65.7121 10.3129 65.7121 12.4509V21.8997H61.8604V5.93777Z" fill="#F2F2F2"/>
<path d="M71.4227 13.9187C71.4227 8.87536 74.8888 5.49158 80.1184 5.49158C85.348 5.49158 88.8141 8.87536 88.8141 13.9187V14.6536L88.4935 14.9726H75.3373C75.6904 17.4943 77.6162 19.1539 80.1184 19.1539C82.0118 19.1539 83.7753 18.0677 84.5139 16.4727H88.4285C87.3692 19.9837 84.033 22.3459 80.1184 22.3459C74.8888 22.3459 71.4227 18.9621 71.4227 13.9187ZM84.6438 11.7806C83.9051 9.80206 82.2695 8.68355 80.1184 8.68355C77.9673 8.68355 76.3316 9.80004 75.595 11.7806H84.6438Z" fill="#F2F2F2"/>
<path d="M90.4802 13.9187C90.4802 8.87536 93.8165 5.49158 98.8228 5.49158C100.716 5.49158 102.802 6.35367 104.022 7.66196V5.93777H107.872V21.8997H104.022V20.1755C102.802 21.4838 100.716 22.3459 98.8228 22.3459C93.8165 22.3459 90.4802 18.9621 90.4802 13.9187ZM104.022 13.9187C104.022 10.8862 102.096 8.87535 99.2084 8.87535C96.3207 8.87535 94.3319 10.8862 94.3319 13.9187C94.3319 16.9512 96.2882 18.9621 99.2084 18.9621C102.129 18.9621 104.022 16.9512 104.022 13.9187Z" fill="#F2F2F2"/>
<path d="M141.37 13.9187C141.37 8.87536 144.836 5.49158 150.066 5.49158C155.295 5.49158 158.761 8.87536 158.761 13.9187C158.761 18.9621 155.295 22.3459 150.066 22.3459C144.836 22.3459 141.37 18.9621 141.37 13.9187ZM154.912 13.9187C154.912 10.8862 152.986 8.87535 150.066 8.87535C147.145 8.87535 145.222 10.8862 145.222 13.9187C145.222 16.9512 147.148 18.9621 150.066 18.9621C152.984 18.9621 154.912 16.9512 154.912 13.9187Z" fill="#F2F2F2"/>
<path d="M160.748 5.93777H164.6V7.82146C165.434 6.51317 167.007 5.61877 168.482 5.61877C169.06 5.61877 169.734 5.74597 170.183 5.93777V8.87536H168.868C166.3 8.87536 164.6 10.3129 164.6 12.4509V21.8997H160.748V5.93777Z" fill="#F2F2F2"/>
<path d="M171.981 19.3457L180.516 9.32152H171.981V5.93774H185.778V8.49173L177.243 18.5159H185.778V21.8996H171.981V19.3457Z" fill="#F2F2F2"/>
<path d="M188.15 0H192.002V3.51097H188.15V0ZM188.15 5.93776H192.002V21.8997H188.15V5.93776Z" fill="#F2F2F2"/>
<path d="M1.34747 31.9218H9.20914C15.4981 31.9218 19.7008 36.2948 19.7008 42.8403C19.7008 49.3858 15.4981 53.8214 9.20914 53.8214H1.34747V31.9218ZM9.20914 51.2674C13.765 51.2674 16.8131 47.8837 16.8131 42.8403C16.8131 37.7969 13.765 34.4757 9.20914 34.4757H4.23523V51.2674H9.20914Z" fill="#6C99D5"/>
<path d="M22.0103 45.8405C22.0103 40.8597 25.2186 37.5405 30.0647 37.5405C34.9108 37.5405 38.1192 40.9566 38.1192 46.0969L37.8635 46.3513H24.6119C24.7397 49.6704 26.9213 51.9054 30.0667 51.9054C32.4411 51.9054 34.4948 50.5002 35.201 48.3945H37.7681C36.7412 51.8428 33.6607 54.1404 30.0667 54.1404C25.2227 54.1404 22.0123 50.8213 22.0123 45.8405H22.0103ZM35.3917 44.1163C34.7829 41.3382 32.8571 39.7735 30.0647 39.7735C27.2723 39.7735 25.3485 41.3382 24.7377 44.1163H35.3897H35.3917Z" fill="#6C99D5"/>
<path d="M39.079 37.8595H41.8389L46.685 50.9807L51.5615 37.8595H54.3214L47.9046 53.8214H45.4978L39.0811 37.8595H39.079Z" fill="#6C99D5"/>
<path d="M55.2833 45.8405C55.2833 40.8597 58.4917 37.5405 63.3378 37.5405C68.1838 37.5405 71.3922 40.9566 71.3922 46.0969L71.1365 46.3513H57.8849C58.0128 49.6704 60.1943 51.9054 63.3398 51.9054C65.7141 51.9054 67.7678 50.5002 68.474 48.3945H71.0412C70.0143 51.8428 66.9338 54.1404 63.3398 54.1404C58.4958 54.1404 55.2854 50.8213 55.2854 45.8405H55.2833ZM68.6648 44.1163C68.056 41.3382 66.1301 39.7735 63.3378 39.7735C60.5454 39.7735 58.6216 41.3382 58.0108 44.1163H68.6628H68.6648Z" fill="#6C99D5"/>
<path d="M74.4687 31.9218H77.0358V53.8214H74.4687V31.9218Z" fill="#6C99D5"/>
<path d="M80.1163 45.8405C80.1163 40.8597 83.3247 37.5405 88.1708 37.5405C93.0169 37.5405 96.2252 40.8597 96.2252 45.8405C96.2252 50.8213 93.0169 54.1404 88.1708 54.1404C83.3247 54.1404 80.1163 50.8213 80.1163 45.8405ZM93.6581 45.8405C93.6581 42.2023 91.4766 39.7755 88.1708 39.7755C84.865 39.7755 82.6834 42.2023 82.6834 45.8405C82.6834 49.4786 84.865 51.9054 88.1708 51.9054C91.4766 51.9054 93.6581 49.4786 93.6581 45.8405Z" fill="#6C99D5"/>
<path d="M99.3038 37.8595H101.871V40.573C103.123 38.7539 105.465 37.5405 107.744 37.5405C112.492 37.5405 115.668 40.8597 115.668 45.8405C115.668 50.8213 112.492 54.1404 107.744 54.1404C105.465 54.1404 103.123 52.927 101.871 51.1079V59.7592H99.3038V37.8595ZM113.101 45.8405C113.101 42.2023 110.855 39.7755 107.486 39.7755C104.117 39.7755 101.871 42.2023 101.871 45.8405C101.871 49.4786 104.117 51.9054 107.486 51.9054C110.855 51.9054 113.101 49.4786 113.101 45.8405Z" fill="#6C99D5"/>
<path d="M117.976 45.8405C117.976 40.8597 121.184 37.5405 126.03 37.5405C130.876 37.5405 134.085 40.9566 134.085 46.0969L133.829 46.3513H120.577C120.705 49.6704 122.887 51.9054 126.032 51.9054C128.407 51.9054 130.46 50.5002 131.166 48.3945H133.734C132.707 51.8428 129.626 54.1404 126.032 54.1404C121.188 54.1404 117.978 50.8213 117.978 45.8405H117.976ZM131.357 44.1163C130.748 41.3382 128.823 39.7735 126.03 39.7735C123.238 39.7735 121.314 41.3382 120.703 44.1163H131.355H131.357Z" fill="#6C99D5"/>
<path d="M137.163 37.8595H139.73V40.0622C141.045 38.338 142.523 37.5405 144.319 37.5405C144.8 37.5405 145.313 37.6677 145.634 37.8595V39.7755H144.542C141.654 39.7755 139.728 41.6592 139.728 44.4999V53.8214H137.161V37.8595H137.163Z" fill="#6C99D5"/>
<path d="M0.255676 80.0275C0.255676 77.8571 2.14905 75.4303 4.97186 73.9626L3.81717 72.8461C2.63 71.665 1.85886 69.9731 1.85886 68.5679C1.85886 65.5354 4.29812 63.5245 7.92456 63.5245C11.551 63.5245 14.1181 65.6 14.1181 68.6971C14.1181 70.4536 12.5454 72.5271 10.2035 73.8697C9.78749 74.0938 9.36945 74.3159 9.14419 74.4128L14.664 79.7751C15.2403 78.6587 15.6259 76.9022 15.6259 75.4344H18.193C18.193 77.5099 17.5193 79.9669 16.4924 81.5639L20.8251 85.7452H17.1337L14.8243 83.5102C13.1237 85.0426 10.236 86.0642 7.57348 86.0642C3.17793 86.0642 0.257706 83.6374 0.257706 80.0316L0.255676 80.0275ZM13.1237 81.8466L6.70695 75.6221C4.36509 76.8678 2.82482 78.6223 2.82482 80.0275C2.82482 82.2948 4.7182 83.8272 7.57348 83.8272C9.62717 83.8272 11.8412 83.0297 13.1237 81.8486V81.8466ZM9.08128 71.9194C10.5586 71.0896 11.553 69.7813 11.553 68.6951C11.553 66.9386 10.1102 65.7575 7.92659 65.7575C5.74301 65.7575 4.43003 66.874 4.43003 68.5659C4.43003 69.3331 4.91098 70.3224 5.61719 71.025L7.44563 72.7815C7.95905 72.5271 8.6328 72.1758 9.08128 71.9194Z" fill="#6C99D5"/>
<path d="M28.5873 63.8436H36.449C42.7379 63.8436 46.9407 68.2167 46.9407 74.7622C46.9407 81.3076 42.7379 85.7433 36.449 85.7433H28.5873V63.8436ZM36.449 83.1893C41.0049 83.1893 44.0529 79.8055 44.0529 74.7622C44.0529 69.7188 41.0049 66.3976 36.449 66.3976H31.4751V83.1893H36.449Z" fill="#6C99D5"/>
<path d="M49.2501 77.7624C49.2501 72.7816 52.4584 69.4624 57.3045 69.4624C62.1506 69.4624 65.359 72.8785 65.359 78.0188L65.1033 78.2731H51.8517C51.9795 81.5923 54.1611 83.8273 57.3065 83.8273C59.6809 83.8273 61.7346 82.4221 62.4408 80.3163H65.0079C63.981 83.7647 60.9005 86.0623 57.3065 86.0623C52.4625 86.0623 49.2521 82.7431 49.2521 77.7624H49.2501ZM62.6315 76.0382C62.0227 73.2601 60.0969 71.6954 57.3045 71.6954C54.5121 71.6954 52.5883 73.2601 51.9775 76.0382H62.6295H62.6315Z" fill="#6C99D5"/>
<path d="M66.7045 80.3163H69.1113C69.1742 82.4241 71.0046 83.8273 73.6996 83.8273C76.3946 83.8273 78.0627 82.8057 78.0627 81.2733C78.0627 79.9327 77.1637 79.3573 73.5393 78.5275C69.1113 77.5382 67.7313 76.4843 67.7313 74.0575C67.7313 71.3117 70.1056 69.4603 73.6996 69.4603C76.5874 69.4603 79.0895 71.0876 79.9561 73.5144L77.6142 74.0898C77.1332 72.6523 75.5605 71.6953 73.6996 71.6953C71.6459 71.6953 70.2984 72.5574 70.2984 73.8657C70.2984 74.9519 71.1974 75.5253 74.0852 76.2279C79.0266 77.2495 80.5994 78.4306 80.5994 81.1441C80.5994 84.0816 77.8395 86.0602 73.7016 86.0602C69.5638 86.0602 66.7714 83.7626 66.7065 80.3143L66.7045 80.3163Z" fill="#6C99D5"/>
<path d="M83.0366 63.8436H85.6037V67.3546H83.0366V63.8436ZM83.0366 69.7814H85.6037V85.7433H83.0366V69.7814Z" fill="#6C99D5"/>
<path d="M88.9074 86.0623H91.5375C92.2112 88.4245 94.0397 89.7651 96.5743 89.7651C99.9755 89.7651 101.901 87.6896 101.901 84.0191V82.9026C100.747 84.5945 98.5326 85.7433 96.3511 85.7433C91.7627 85.7433 88.6822 82.4867 88.6822 77.6029C88.6822 72.719 91.7627 69.4624 96.3511 69.4624C98.5001 69.4624 100.714 70.6112 101.901 72.3354V69.7814H104.468V84.0191C104.468 89.1271 101.613 92.0001 96.5743 92.0001C92.5319 92.0001 89.7719 89.86 88.9054 86.0623H88.9074ZM101.903 77.6029C101.903 74.0596 99.7867 71.6974 96.6088 71.6974C93.4308 71.6974 91.2513 74.0596 91.2513 77.6029C91.2513 81.1461 93.4004 83.5083 96.6088 83.5083C99.8172 83.5083 101.903 81.1461 101.903 77.6029Z" fill="#6C99D5"/>
<path d="M108.32 69.7814H110.887V71.8246C112.011 70.4194 114.033 69.4624 115.894 69.4624C119.906 69.4624 122.568 72.0164 122.568 75.8464V85.7433H120.001V76.2946C120.001 73.5488 118.173 71.6974 115.445 71.6974C112.718 71.6974 110.889 73.5488 110.889 76.2946V85.7433H108.322V69.7814H108.32Z" fill="#6C99D5"/>
<path d="M125.324 77.7624C125.324 72.7816 128.532 69.4624 133.378 69.4624C138.224 69.4624 141.433 72.8785 141.433 78.0188L141.177 78.2731H127.926C128.053 81.5923 130.235 83.8273 133.38 83.8273C135.755 83.8273 137.808 82.4221 138.515 80.3163H141.082C140.055 83.7647 136.974 86.0623 133.38 86.0623C128.536 86.0623 125.326 82.7431 125.326 77.7624H125.324ZM138.705 76.0382C138.097 73.2601 136.171 71.6954 133.378 71.6954C130.586 71.6954 128.662 73.2601 128.051 76.0382H138.703H138.705Z" fill="#6C99D5"/>
<path d="M144.511 69.7814H147.079V71.9841C148.394 70.2599 149.871 69.4624 151.667 69.4624C152.148 69.4624 152.661 69.5896 152.982 69.7814V71.6974H151.89C149.002 71.6974 147.077 73.5811 147.077 76.4218V85.7433H144.509V69.7814H144.511Z" fill="#6C99D5"/>
<path d="M129.243 13.1394C130.459 13.1394 131.444 12.1587 131.444 10.9489C131.444 9.73905 130.459 8.7583 129.243 8.7583C128.027 8.7583 127.041 9.73905 127.041 10.9489C127.041 12.1587 128.027 13.1394 129.243 13.1394Z" fill="#6C99D5"/>
<path d="M140.28 17.5205H118.268V21.8996H140.28V17.5205Z" fill="#F2F2F2"/>
<path d="M140.28 0H118.268V4.37913H140.28V0Z" fill="#F2F2F2"/>
</g>
<defs>
<clipPath id="clip0_31_748">
<rect width="192" height="92" fill="white"/>
</clipPath>
</defs>
</svg>
